<svg width="900" height="520" viewBox="0 0 900 520" fill="none" xmlns="http://www.w3.org/2000/svg">
  <rect width="900" height="520" rx="28" fill="#F7F1E8"/>
  <rect x="78" y="404" width="744" height="36" rx="18" fill="#D8C5A7"/>
  <rect x="155" y="165" width="590" height="252" rx="18" fill="#FFFDF8" stroke="#C8A46F" stroke-width="8"/>
  <path d="M120 178L450 62L780 178H120Z" fill="#2F6B4F"/>
  <path d="M165 178L450 83L735 178H165Z" fill="#3F8A65"/>
  <rect x="395" y="279" width="110" height="138" rx="12" fill="#8B633F"/>
  <circle cx="485" cy="350" r="7" fill="#F4D9A1"/>
  <rect x="211" y="222" width="86" height="70" rx="8" fill="#D9EEF2" stroke="#C8A46F" stroke-width="6"/>
  <rect x="331" y="222" width="86" height="70" rx="8" fill="#D9EEF2" stroke="#C8A46F" stroke-width="6"/>
  <rect x="483" y="222" width="86" height="70" rx="8" fill="#D9EEF2" stroke="#C8A46F" stroke-width="6"/>
  <rect x="603" y="222" width="86" height="70" rx="8" fill="#D9EEF2" stroke="#C8A46F" stroke-width="6"/>
  <rect x="211" y="317" width="86" height="64" rx="8" fill="#D9EEF2" stroke="#C8A46F" stroke-width="6"/>
  <rect x="603" y="317" width="86" height="64" rx="8" fill="#D9EEF2" stroke="#C8A46F" stroke-width="6"/>
  <path d="M201 407H699" stroke="#C8A46F" stroke-width="10" stroke-linecap="round"/>
  <circle cx="91" cy="388" r="42" fill="#3F8A65"/>
  <rect x="83" y="399" width="16" height="50" rx="8" fill="#8B633F"/>
  <circle cx="809" cy="388" r="42" fill="#3F8A65"/>
  <rect x="801" y="399" width="16" height="50" rx="8" fill="#8B633F"/>
</svg>
